<?xml version="1.0" standalone="no"?><!DOCTYPE svg PUBLIC "-//W3C//DTD SVG 1.1//EN" "http://www.w3.org/Graphics/SVG/1.1/DTD/svg11.dtd"><svg class="icon" width="200px" height="200.00px" viewBox="0 0 1024 1024" version="1.1" xmlns="http://www.w3.org/2000/svg"><path fill="#707070" d="M525.6 120.22l323.9 161.51c5.61 3.25 10.14 7.55 12.94 12.74l90.34 160.87c7.99 14.86 2.8 32.99-11.64 41.4-1.08 0.42-2.36 0.86-3.44 1.5l-70.95 35.57v181.14c0 13.16-8.41 23.94-19.41 28.27L525.6 904.1c-8.85 4.31-18.99 3.89-27.18 0l-323.9-162.4c-10.36-5.17-16.8-15.94-16.8-26.74V533.82l-73.33-36.66c-15.08-7.11-21.13-25.88-13.8-40.54l0.86-1.28 89.94-160.87c3.67-6.27 8.83-10.58 14.86-13.38l322.18-160.87c8.84-4.52 18.98-4.52 27.17 0z m-31.49 713.79V541.37l-50.46 89.28c-4.75 8.63-15.97 11.86-24.6 6.91l-0.42-0.22-200.33-99.86v158.28l275.81 138.25z m0-392.47V190.31L242.24 316.03l251.87 125.51z m36.24-251.23v251.23l251.43-125.51-251.43-125.72z m0 351.51v292.19l275.14-138.23v-158.7L604.94 637.34l-0.42 0.22c-8.63 4.95-19.85 1.72-24.58-6.91l-49.59-88.83z m287.44-203.58l-280.55 140.6 65.98 118.6 280.77-140.38-66.2-118.82zM204.28 489.61l216.07 107.83 66.42-118.6-280.54-140.18-66.43 118.63 59.31 29.52c1.73 0.88 3.45 1.52 5.17 2.8z"  /></svg>